<svg xmlns="http://www.w3.org/2000/svg" xmlns:xlink="http://www.w3.org/1999/xlink" width="110" height="110" viewBox="0 0 110 110">
  <defs>
    <clipPath id="clip-path">
      <rect id="Rectangle_3081" data-name="Rectangle 3081" width="110" height="110" transform="translate(965.445 18861.471)" fill="#fff"/>
    </clipPath>
  </defs>
  <g id="Awarded_icon_big" data-name="Awarded icon big" transform="translate(-965.445 -18861.471)" clip-path="url(#clip-path)">
    <g id="star-badge--ribbon-reward-like-social-rating-media" transform="translate(988.076 18865.961)">
      <path id="Ellipse_19" data-name="Ellipse 19" d="M82.381,40.7A40.17,40.17,0,1,1,42.211.526,40.17,40.17,0,0,1,82.381,40.7Z" transform="translate(10.449 -0.526)" fill="none" stroke="#ebeced" stroke-linecap="round" stroke-linejoin="round" stroke-width="3"/>
      <path id="Vector" d="M28.383,3.678l5.536,11.137a1.735,1.735,0,0,0,1.41,1.029l12.3,1.864a1.864,1.864,0,0,1,1.029,3.218L39.569,29.55a1.8,1.8,0,0,0,0,1.67l1.743,12.223a1.864,1.864,0,0,1-2.772,1.994L27.6,39.649a2.188,2.188,0,0,0-1.8,0L14.856,45.436A1.864,1.864,0,0,1,12.1,43.442L14.159,31.22a1.8,1.8,0,0,0-.324-1.67l-9.07-8.7A1.864,1.864,0,0,1,5.8,17.692L18.09,15.909a1.735,1.735,0,0,0,1.41-1.029L25.036,3.743a1.864,1.864,0,0,1,3.347-.065Z" transform="translate(25.922 14.681)" fill="none" stroke="#ebeced" stroke-linecap="round" stroke-linejoin="round" stroke-width="3"/>
      <path id="Vector_2353" data-name="Vector 2353" d="M18.364,7.913.5,38.859l19.3-5.171,5.179,19.3,15.5-26.845" transform="translate(-0.5 51.961)" fill="none" stroke="#ebeced" stroke-linecap="round" stroke-linejoin="round" stroke-width="3"/>
      <path id="Vector_2354" data-name="Vector 2354" d="M30.679,7.913,48.543,38.859,29.236,33.688l-5.171,19.3L8.568,26.142" transform="translate(56.825 51.961)" fill="none" stroke="#ebeced" stroke-linecap="round" stroke-linejoin="round" stroke-width="3"/>
    </g>
  </g>
</svg>
