<svg xmlns="http://www.w3.org/2000/svg" width="28" height="28" viewBox="0 0 28 28">
  <g id="Awarded" transform="translate(-1304 -16262.5)">
    <g id="Group_3950" data-name="Group 3950">
      <rect id="Rectangle" width="28" height="28" rx="7" transform="translate(1304 16262.5)" fill="none"/>
    </g>
    <g id="star-badge--ribbon-reward-like-social-rating-media" transform="translate(1304.5 16262.974)">
      <path id="Ellipse_19" data-name="Ellipse 19" d="M21.945,10.478A9.952,9.952,0,1,1,11.993.526a9.952,9.952,0,0,1,9.952,9.952Z" transform="translate(1.553)" fill="none" stroke="#2cbe7c" stroke-linecap="round" stroke-linejoin="round" stroke-width="1.5"/>
      <path id="Vector" d="M10.205,2.917l1.371,2.759a.43.43,0,0,0,.349.255l3.046.462a.462.462,0,0,1,.255.8L12.976,9.326a.446.446,0,0,0,0,.414l.432,3.028a.462.462,0,0,1-.687.494l-2.711-1.434a.542.542,0,0,0-.446,0L6.854,13.262a.462.462,0,0,1-.683-.494l.51-3.028a.446.446,0,0,0-.08-.414L4.354,7.172a.462.462,0,0,1,.257-.783l3.044-.442A.43.43,0,0,0,8,5.692L9.376,2.933a.462.462,0,0,1,.829-.016Z" transform="translate(3.749 2.157)" fill="none" stroke="#2cbe7c" stroke-linecap="round" stroke-linejoin="round" stroke-width="1.5"/>
      <path id="Vector_2353" data-name="Vector 2353" d="M4.926,7.913.5,15.58,5.281,14.3,6.564,19.08,10.4,12.429" transform="translate(0 7.446)" fill="none" stroke="#2cbe7c" stroke-linecap="round" stroke-linejoin="round" stroke-width="1.5"/>
      <path id="Vector_2354" data-name="Vector 2354" d="M14.046,7.913l4.426,7.667L13.688,14.3,12.407,19.08,8.568,12.429" transform="translate(8.133 7.446)" fill="none" stroke="#2cbe7c" stroke-linecap="round" stroke-linejoin="round" stroke-width="1.5"/>
    </g>
  </g>
</svg>
