<svg id="Not_Awarded" data-name="Not Awarded" xmlns="http://www.w3.org/2000/svg" width="28" height="28" viewBox="0 0 28 28">
  <g id="star-badge--ribbon-reward-like-social-rating-media" transform="translate(0.5 0.475)">
    <path id="Ellipse_19" data-name="Ellipse 19" d="M21.945,10.478A9.952,9.952,0,1,1,11.993.526a9.952,9.952,0,0,1,9.952,9.952Z" transform="translate(1.553)" fill="none" stroke="#f55c38" stroke-linecap="round" stroke-linejoin="round" stroke-width="1.5"/>
    <path id="Vector_2353" data-name="Vector 2353" d="M4.926,7.913.5,15.58,5.281,14.3,6.564,19.08,10.4,12.429" transform="translate(0 7.446)" fill="none" stroke="#f55c38" stroke-linecap="round" stroke-linejoin="round" stroke-width="1.5"/>
    <path id="Vector_2354" data-name="Vector 2354" d="M14.046,7.913l4.426,7.667L13.688,14.3,12.407,19.08,8.568,12.429" transform="translate(8.133 7.446)" fill="none" stroke="#f55c38" stroke-linecap="round" stroke-linejoin="round" stroke-width="1.5"/>
    <g id="Group_4022" data-name="Group 4022" transform="translate(195.478 -5056.496)">
      <path id="Vector" d="M7.358,7.358.5.5" transform="translate(-185.907 5063.093)" fill="none" stroke="#f55c38" stroke-linecap="round" stroke-linejoin="round" stroke-width="1.5"/>
      <g id="button-record-3--button-television-buttons-movies-record-tv-video-controls" transform="translate(-186.978 5062.022)">
        <path id="Vector-2" data-name="Vector" d="M5.5,10.5a5,5,0,1,0-5-5,5,5,0,0,0,5,5Z" transform="translate(-0.5 -0.5)" fill="none" stroke="#f55c38" stroke-linecap="round" stroke-linejoin="round" stroke-width="1.5"/>
      </g>
    </g>
  </g>
  <g id="Not_Awarded-2" data-name="Not Awarded" transform="translate(-1304 -16262.5)">
    <rect id="Rectangle" width="28" height="28" transform="translate(1304 16262.5)" fill="none"/>
  </g>
</svg>
